<?xml version="1.0" encoding="UTF-8" standalone="no" ?>
<!DOCTYPE svg PUBLIC "-//W3C//DTD SVG 1.1//EN" "http://www.w3.org/Graphics/SVG/1.1/DTD/svg11.dtd">
<svg xmlns="http://www.w3.org/2000/svg" xmlns:xlink="http://www.w3.org/1999/xlink" version="1.1" width="640" height="150" viewBox="0 0 640 150" xml:space="preserve">
<desc>Created with Fabric.js 3.6.6</desc>
<defs>
</defs>
<g transform="matrix(2.67 0 0 2.67 318 78)"  >
<g style=""   >
		<g transform="matrix(1 0 0 1 0 0)"  >
<rect style="stroke: none; stroke-width: 1; stroke-dasharray: none; stroke-linecap: butt; stroke-dashoffset: 0; stroke-linejoin: miter; stroke-miterlimit: 4; fill: rgb(255,255,255); fill-opacity: 0; fill-rule: nonzero; opacity: 1;"  x="-150" y="-150" rx="0" ry="0" width="300" height="300" />
</g>
		<g transform="matrix(1.81 0 0 1.81 35.98 -9.99)"  >
<path style="stroke: none; stroke-width: 1; stroke-dasharray: none; stroke-linecap: butt; stroke-dashoffset: 0; stroke-linejoin: miter; stroke-miterlimit: 4; fill: rgb(0,0,0); fill-rule: nonzero; opacity: 1;"  transform=" translate(-41.74, -9.34)" d="M 1.54 14.59 L 1.54 14.59 L 1.54 14.59 Q 1.41 14.25 1.41 13.65 L 1.41 13.65 L 1.41 13.65 Q 1.41 13.05 1.82 10.09 L 1.82 10.09 L 1.82 10.09 Q 2.23 7.14 2.23 5.35 L 2.23 5.35 L 2.23 5.35 Q 2.23 4.93 2.17 4.2 L 2.17 4.2 L 2.17 4.2 Q 3.23 4.26 3.5 4.7 L 3.5 4.7 L 3.5 4.7 Q 3.64 4.96 3.68 5.19 L 3.68 5.19 L 3.68 5.19 Q 3.72 5.42 3.72 5.92 L 3.72 5.92 L 3.72 5.92 Q 3.72 6.41 3.27 9.65 L 3.27 9.65 L 3.27 9.65 Q 2.81 12.89 2.8 14.27 L 2.8 14.27 L 2.8 14.27 Q 2.87 14.25 3.05 14.25 L 3.05 14.25 L 3.05 14.25 Q 6.08 14.25 7.56 13.83 L 7.56 13.83 L 7.56 13.83 Q 7.46 14.64 7.01 15.09 L 7.01 15.09 L 7.01 15.09 Q 6.55 15.54 5.87 15.54 L 5.87 15.54 L 5.87 15.54 Q 5.67 15.54 4.66 15.45 L 4.66 15.45 L 4.66 15.45 Q 3.64 15.36 2.69 15.36 L 2.69 15.36 L 2.69 15.36 Q 1.74 15.36 0.78 15.54 L 0.78 15.54 L 0.78 15.54 Q 0.97 14.92 1.54 14.59 Z M 10.75 9.95 L 10.75 9.95 L 10.75 9.95 Q 10.35 10.65 10.13 11.39 L 10.13 11.39 L 10.13 11.39 Q 9.91 12.12 9.91 12.8 L 9.91 12.8 L 9.91 12.8 Q 9.91 13.47 10.21 13.94 L 10.21 13.94 L 10.21 13.94 Q 10.51 14.41 11.07 14.41 L 11.07 14.41 L 11.07 14.41 Q 11.86 14.41 12.54 13.55 L 12.54 13.55 L 12.54 13.55 Q 13.23 12.68 13.6 11.46 L 13.6 11.46 L 13.6 11.46 Q 13.97 10.23 13.97 9.19 L 13.97 9.19 L 13.97 9.19 Q 13.97 8.15 13.89 7.48 L 13.89 7.48 L 13.89 7.48 Q 14.22 7.45 14.31 7.45 L 14.31 7.45 L 14.31 7.45 Q 15.5 7.45 15.5 8.67 L 15.5 8.67 L 15.5 8.67 Q 15.5 8.93 15.16 10.83 L 15.16 10.83 L 15.16 10.83 Q 14.83 12.73 14.83 13.87 L 14.83 13.87 L 14.83 13.87 Q 14.83 15.01 15.26 15.89 L 15.26 15.89 L 15.26 15.89 Q 14.38 15.71 13.98 15.11 L 13.98 15.11 L 13.98 15.11 Q 13.58 14.52 13.58 13.4 L 13.58 13.4 L 13.58 13.4 Q 13.58 13.2 13.64 12.64 L 13.64 12.64 L 13.64 12.64 Q 13.26 13.97 12.31 14.78 L 12.31 14.78 L 12.31 14.78 Q 11.35 15.6 10.44 15.6 L 10.44 15.6 L 10.44 15.6 Q 9.52 15.6 8.96 14.9 L 8.96 14.9 L 8.96 14.9 Q 8.4 14.21 8.4 12.99 L 8.4 12.99 L 8.4 12.99 Q 8.4 11.76 8.86 10.59 L 8.86 10.59 L 8.86 10.59 Q 9.31 9.42 10.23 8.57 L 10.23 8.57 L 10.23 8.57 Q 11.14 7.71 12.28 7.71 L 12.28 7.71 L 12.28 7.71 Q 12.77 7.71 13.36 7.91 L 13.36 7.91 L 13.36 7.91 Q 12.53 8.12 11.84 8.68 L 11.84 8.68 L 11.84 8.68 Q 11.16 9.24 10.75 9.95 Z M 24.84 5.7 L 24.84 5.7 L 24.85 5.87 L 24.85 5.87 Q 24.85 6.4 24.45 9.35 L 24.45 9.35 L 24.45 9.35 Q 24.05 12.29 24.05 14.27 L 24.05 14.27 L 24.05 14.27 Q 24.05 15.15 24.14 15.64 L 24.14 15.64 L 24.14 15.64 Q 23.8 15.67 23.77 15.67 L 23.77 15.67 L 23.77 15.67 Q 23.14 15.67 22.83 15.38 L 22.83 15.38 L 22.83 15.38 Q 22.53 15.09 22.53 14.44 L 22.53 14.44 L 22.53 14.44 Q 22.53 13.79 23 10.46 L 23 10.46 L 23 10.46 Q 23.46 7.14 23.46 5.72 L 23.46 5.72 L 23.46 5.72 Q 23.46 4.3 23.27 3.86 L 23.27 3.86 L 23.27 3.86 Q 23.72 3.92 24.1 4.21 L 24.1 4.21 L 24.1 4.21 Q 24.49 4.49 24.68 4.97 L 24.68 4.97 L 24.68 4.97 Q 25.75 4.4 27.06 4.4 L 27.06 4.4 L 27.06 4.4 Q 28.36 4.4 29.11 5.2 L 29.11 5.2 L 29.11 5.2 Q 29.86 6.01 29.86 7.18 L 29.86 7.18 L 29.86 7.18 Q 29.86 8.68 28.77 9.88 L 28.77 9.88 L 28.77 9.88 Q 27.68 11.07 25.83 11.07 L 25.83 11.07 L 25.83 11.07 Q 25.41 11.07 25.06 11.02 L 25.06 11.02 L 25.02 10.57 L 25.02 10.57 Q 25.96 10.57 26.66 10.29 L 26.66 10.29 L 26.66 10.29 Q 27.36 10.01 27.72 9.55 L 27.72 9.55 L 27.72 9.55 Q 28.43 8.65 28.43 7.45 L 28.43 7.45 L 28.43 7.45 Q 28.43 6.58 27.88 6 L 27.88 6 L 27.88 6 Q 27.33 5.42 26.28 5.42 L 26.28 5.42 L 26.28 5.42 Q 25.65 5.42 24.84 5.7 Z M 32.96 9.95 L 32.96 9.95 L 32.96 9.95 Q 32.55 10.65 32.33 11.39 L 32.33 11.39 L 32.33 11.39 Q 32.12 12.12 32.12 12.8 L 32.12 12.8 L 32.12 12.8 Q 32.12 13.47 32.42 13.94 L 32.42 13.94 L 32.42 13.94 Q 32.72 14.41 33.28 14.41 L 33.28 14.41 L 33.28 14.41 Q 34.06 14.41 34.75 13.55 L 34.75 13.55 L 34.75 13.55 Q 35.43 12.68 35.8 11.46 L 35.8 11.46 L 35.8 11.46 Q 36.18 10.23 36.18 9.19 L 36.18 9.19 L 36.18 9.19 Q 36.18 8.15 36.09 7.48 L 36.09 7.48 L 36.09 7.48 Q 36.43 7.45 36.51 7.45 L 36.51 7.45 L 36.51 7.45 Q 37.7 7.45 37.7 8.67 L 37.7 8.67 L 37.7 8.67 Q 37.7 8.93 37.37 10.83 L 37.37 10.83 L 37.37 10.83 Q 37.03 12.73 37.03 13.87 L 37.03 13.87 L 37.03 13.87 Q 37.03 15.01 37.46 15.89 L 37.46 15.89 L 37.46 15.89 Q 36.58 15.71 36.18 15.11 L 36.18 15.11 L 36.18 15.11 Q 35.78 14.52 35.78 13.4 L 35.78 13.4 L 35.78 13.4 Q 35.78 13.2 35.84 12.64 L 35.84 12.64 L 35.84 12.64 Q 35.46 13.97 34.51 14.78 L 34.51 14.78 L 34.51 14.78 Q 33.56 15.6 32.64 15.6 L 32.64 15.6 L 32.64 15.6 Q 31.72 15.6 31.16 14.9 L 31.16 14.9 L 31.16 14.9 Q 30.6 14.21 30.6 12.99 L 30.6 12.99 L 30.6 12.99 Q 30.6 11.76 31.06 10.59 L 31.06 10.59 L 31.06 10.59 Q 31.51 9.42 32.43 8.57 L 32.43 8.57 L 32.43 8.57 Q 33.35 7.71 34.48 7.71 L 34.48 7.71 L 34.48 7.71 Q 34.97 7.71 35.56 7.91 L 35.56 7.91 L 35.56 7.91 Q 34.73 8.12 34.05 8.68 L 34.05 8.68 L 34.05 8.68 Q 33.36 9.24 32.96 9.95 Z M 46.35 9.34 L 46.35 9.34 L 46.35 9.34 Q 46.35 9.98 46.08 11.61 L 46.08 11.61 L 46.08 11.61 Q 45.81 13.24 45.81 13.99 L 45.81 13.99 L 45.81 13.99 Q 45.81 14.73 45.99 15.06 L 45.99 15.06 L 45.99 15.06 Q 46.17 15.39 46.61 15.62 L 46.61 15.62 L 46.61 15.62 Q 46.42 15.64 46.09 15.64 L 46.09 15.64 L 46.09 15.64 Q 45.14 15.64 44.74 15.28 L 44.74 15.28 L 44.74 15.28 Q 44.34 14.92 44.34 14 L 44.34 14 L 44.34 14 Q 44.34 13.48 44.62 11.91 L 44.62 11.91 L 44.62 11.91 Q 44.9 10.33 44.9 9.59 L 44.9 9.59 L 44.9 9.59 Q 44.9 8.67 44.34 8.67 L 44.34 8.67 L 44.34 8.67 Q 43.44 8.67 42.48 10.25 L 42.48 10.25 L 42.48 10.25 Q 41.52 11.83 41.52 14.06 L 41.52 14.06 L 41.52 14.06 Q 41.52 14.94 41.61 15.43 L 41.61 15.43 L 41.61 15.43 Q 41.24 15.46 41.17 15.46 L 41.17 15.46 L 41.17 15.46 Q 39.94 15.46 39.94 14.25 L 39.94 14.25 L 39.94 14.25 Q 39.94 13.97 40.24 12.1 L 40.24 12.1 L 40.24 12.1 Q 40.53 10.22 40.53 9.11 L 40.53 9.11 L 40.53 9.11 Q 40.53 7.99 40.29 7.06 L 40.29 7.06 L 40.29 7.06 Q 41.12 7.38 41.45 7.97 L 41.45 7.97 L 41.45 7.97 Q 41.78 8.57 41.78 9.33 L 41.78 9.33 L 41.78 9.33 Q 41.78 10.09 41.61 11.1 L 41.61 11.1 L 41.61 11.1 Q 42.07 9.52 43.06 8.44 L 43.06 8.44 L 43.06 8.44 Q 44.04 7.35 44.9 7.35 L 44.9 7.35 L 44.9 7.35 Q 46.35 7.35 46.35 9.34 Z M 53.06 7.76 L 53.06 7.76 L 53.06 7.76 Q 53.06 8.34 52.84 8.57 L 52.84 8.57 L 52.84 8.57 Q 52.61 8.79 52.18 8.79 L 52.18 8.79 L 51.17 8.79 L 51.17 8.79 Q 51.11 9.16 50.88 10.53 L 50.88 10.53 L 50.88 10.53 Q 50.4 13.13 50.4 14.46 L 50.4 14.46 L 50.4 14.46 Q 50.4 15.79 50.6 16.23 L 50.6 16.23 L 50.6 16.23 Q 49.8 15.93 49.46 15.34 L 49.46 15.34 L 49.46 15.34 Q 49.13 14.74 49.13 13.89 L 49.13 13.89 L 49.13 13.89 Q 49.13 13.03 49.23 12.27 L 49.23 12.27 L 49.23 12.27 Q 49.34 11.51 49.53 10.49 L 49.53 10.49 L 49.53 10.49 Q 49.73 9.46 49.81 8.85 L 49.81 8.85 L 49.81 8.85 Q 49.01 8.96 48.24 9.3 L 48.24 9.3 L 48.24 9.3 Q 48.22 9.07 48.22 8.89 L 48.22 8.89 L 48.22 8.89 Q 48.22 8.22 48.66 7.99 L 48.66 7.99 L 48.66 7.99 Q 49.11 7.76 49.95 7.76 L 49.95 7.76 L 49.95 7.76 Q 50.05 6.72 50.05 6.21 L 50.05 6.21 L 50.05 6.21 Q 50.05 5.7 50.04 5.39 L 50.04 5.39 L 50.04 5.39 Q 50.04 5.08 50.04 4.93 L 50.04 4.93 L 50.04 4.93 Q 50.68 5.03 51.03 5.5 L 51.03 5.5 L 51.03 5.5 Q 51.38 5.96 51.38 6.78 L 51.38 6.78 L 51.38 6.78 Q 51.38 7.2 51.31 7.8 L 51.31 7.8 L 51.31 7.8 Q 52.53 7.8 53.03 7.39 L 53.03 7.39 L 53.03 7.39 Q 53.06 7.59 53.06 7.76 Z M 55.69 11.1 L 55.69 11.1 Q 56.15 9.52 57.11 8.44 L 57.11 8.44 L 57.11 8.44 Q 58.07 7.35 58.91 7.35 L 58.91 7.35 L 58.91 7.35 Q 59.75 7.35 60.1 7.86 L 60.1 7.86 L 60.1 7.86 Q 60.45 8.37 60.45 9.25 L 60.45 9.25 L 60.45 9.25 Q 60.45 10.12 60.18 11.7 L 60.18 11.7 L 60.18 11.7 Q 59.91 13.29 59.91 14.01 L 59.91 14.01 L 59.91 14.01 Q 59.91 14.73 60.09 15.06 L 60.09 15.06 L 60.09 15.06 Q 60.27 15.39 60.7 15.62 L 60.7 15.62 L 60.7 15.62 Q 60.52 15.64 60.19 15.64 L 60.19 15.64 L 60.19 15.64 Q 59.29 15.64 58.86 15.27 L 58.86 15.27 L 58.86 15.27 Q 58.44 14.9 58.44 14 L 58.44 14 L 58.44 14 Q 58.44 13.48 58.72 11.91 L 58.72 11.91 L 58.72 11.91 Q 59 10.33 59 9.59 L 59 9.59 L 59 9.59 Q 59 8.67 58.35 8.67 L 58.35 8.67 L 58.35 8.67 Q 57.97 8.67 57.51 9.07 L 57.51 9.07 L 57.51 9.07 Q 57.05 9.46 56.62 10.14 L 56.62 10.14 L 56.62 10.14 Q 56.2 10.82 55.91 11.87 L 55.91 11.87 L 55.91 11.87 Q 55.62 12.91 55.62 13.92 L 55.62 13.92 L 55.62 13.92 Q 55.62 14.94 55.71 15.43 L 55.71 15.43 L 55.71 15.43 Q 55.37 15.46 55.33 15.46 L 55.33 15.46 L 55.33 15.46 Q 54.67 15.46 54.36 15.18 L 54.36 15.18 L 54.36 15.18 Q 54.04 14.9 54.04 14.3 L 54.04 14.3 L 54.04 14.3 Q 54.04 13.71 54.29 12.01 L 54.29 12.01 L 54.29 12.01 Q 55.03 6.8 55.03 4.1 L 55.03 4.1 L 55.03 4.1 Q 55.03 2.88 54.87 2.46 L 54.87 2.46 L 54.87 2.46 Q 55.68 2.76 56.01 3.33 L 56.01 3.33 L 56.01 3.33 Q 56.34 3.91 56.34 4.91 L 56.34 4.91 L 56.34 4.91 Q 56.34 5.61 56.06 7.85 L 56.06 7.85 L 56.06 7.85 Q 55.79 10.09 55.69 11.1 L 55.69 11.1 Z M 66.28 8.08 L 66.28 8.08 L 66.28 8.08 Q 65.44 8.08 64.86 9.04 L 64.86 9.04 L 64.86 9.04 Q 64.27 10.01 64.08 11.31 L 64.08 11.31 L 64.47 11.31 L 64.47 11.31 Q 65.21 11.31 65.76 11.1 L 65.76 11.1 L 65.76 11.1 Q 66.3 10.89 66.6 10.56 L 66.6 10.56 L 66.6 10.56 Q 67.16 9.91 67.16 9.1 L 67.16 9.1 L 67.16 9.1 Q 67.16 8.64 66.94 8.36 L 66.94 8.36 L 66.94 8.36 Q 66.72 8.08 66.28 8.08 Z M 68.25 13.75 L 68.25 13.75 Q 67.61 14.8 66.84 15.22 L 66.84 15.22 L 66.84 15.22 Q 66.07 15.64 65.05 15.64 L 65.05 15.64 L 65.05 15.64 Q 64.04 15.64 63.28 14.74 L 63.28 14.74 L 63.28 14.74 Q 62.52 13.85 62.52 12.22 L 62.52 12.22 L 62.52 12.22 Q 62.52 10.37 63.52 8.92 L 63.52 8.92 L 63.52 8.92 Q 64.01 8.22 64.8 7.78 L 64.8 7.78 L 64.8 7.78 Q 65.59 7.35 66.54 7.35 L 66.54 7.35 L 66.54 7.35 Q 68.64 7.35 68.64 9.38 L 68.64 9.38 L 68.64 9.38 Q 68.64 10.6 67.7 11.29 L 67.7 11.29 L 67.7 11.29 Q 66.75 11.98 65.51 11.98 L 65.51 11.98 L 65.51 11.98 Q 64.68 11.98 64.02 11.83 L 64.02 11.83 L 64.02 11.83 Q 64.01 11.97 64.01 12.26 L 64.01 12.26 L 64.01 12.26 Q 64.01 14.74 65.48 14.74 L 65.48 14.74 L 65.48 14.74 Q 66.86 14.74 67.73 13.37 L 67.73 13.37 L 67.73 13.37 Q 68.25 13.44 68.25 13.75 L 68.25 13.75 Z M 67.97 6.3 L 67.97 6.3 L 67.97 6.3 Q 67.96 6.45 67.82 6.59 L 67.82 6.59 L 67.82 6.59 Q 67.69 6.72 67.52 6.76 L 67.52 6.76 L 67.52 6.76 Q 67.02 6.13 66.23 5.52 L 66.23 5.52 L 66.23 5.52 Q 65.44 4.9 64.62 4.65 L 64.62 4.65 L 64.62 4.65 Q 64.65 3.92 65.3 3.5 L 65.3 3.5 L 65.3 3.5 Q 66.04 3.79 66.83 4.66 L 66.83 4.66 L 66.83 4.66 Q 67.62 5.52 67.97 6.3 Z M 72.1 10.88 L 72.1 10.88 Q 72.6 9.06 73.31 8.2 L 73.31 8.2 L 73.31 8.2 Q 74.02 7.34 74.63 7.34 L 74.63 7.34 L 74.63 7.34 Q 75.24 7.34 75.54 7.79 L 75.54 7.79 L 75.54 7.79 Q 75.85 8.25 75.85 8.95 L 75.85 8.95 L 75.85 8.95 Q 75.85 9.65 75.49 10.16 L 75.49 10.16 L 75.49 10.16 Q 75.12 10.67 74.42 10.67 L 74.42 10.67 L 74.42 10.67 Q 74.2 10.67 74.07 10.64 L 74.07 10.64 L 74.07 10.64 Q 74.55 9.95 74.55 9.24 L 74.55 9.24 L 74.55 9.24 Q 74.55 8.74 74.14 8.74 L 74.14 8.74 L 74.14 8.74 Q 73.82 8.74 73.46 9.11 L 73.46 9.11 L 73.46 9.11 Q 73.09 9.49 72.76 10.16 L 72.76 10.16 L 72.76 10.16 Q 72.42 10.84 72.2 11.91 L 72.2 11.91 L 72.2 11.91 Q 71.97 12.99 71.97 14.24 L 71.97 14.24 L 71.97 14.24 Q 71.97 14.38 72.04 15.43 L 72.04 15.43 L 72.04 15.43 Q 71.68 15.46 71.62 15.46 L 71.62 15.46 L 71.62 15.46 Q 70.39 15.46 70.39 14.25 L 70.39 14.25 L 70.39 14.25 Q 70.39 13.97 70.69 12.1 L 70.69 12.1 L 70.69 12.1 Q 70.98 10.22 70.98 9.11 L 70.98 9.11 L 70.98 9.11 Q 70.98 7.99 70.74 7.06 L 70.74 7.06 L 70.74 7.06 Q 71.57 7.38 71.9 7.97 L 71.9 7.97 L 71.9 7.97 Q 72.23 8.57 72.23 9.36 L 72.23 9.36 L 72.23 9.36 Q 72.23 10.15 72.1 10.88 L 72.1 10.88 Z M 80.35 8.08 L 80.35 8.08 L 80.35 8.08 Q 79.51 8.08 78.92 9.04 L 78.92 9.04 L 78.92 9.04 Q 78.34 10.01 78.15 11.31 L 78.15 11.31 L 78.54 11.31 L 78.54 11.31 Q 79.28 11.31 79.83 11.1 L 79.83 11.1 L 79.83 11.1 Q 80.37 10.89 80.67 10.56 L 80.67 10.56 L 80.67 10.56 Q 81.23 9.91 81.23 9.1 L 81.23 9.1 L 81.23 9.1 Q 81.23 8.64 81.01 8.36 L 81.01 8.36 L 81.01 8.36 Q 80.79 8.08 80.35 8.08 Z M 82.32 13.75 L 82.32 13.75 Q 81.68 14.8 80.91 15.22 L 80.91 15.22 L 80.91 15.22 Q 80.14 15.64 79.12 15.64 L 79.12 15.64 L 79.12 15.64 Q 78.11 15.64 77.35 14.74 L 77.35 14.74 L 77.35 14.74 Q 76.59 13.85 76.59 12.22 L 76.59 12.22 L 76.59 12.22 Q 76.59 10.37 77.59 8.92 L 77.59 8.92 L 77.59 8.92 Q 78.08 8.22 78.87 7.78 L 78.87 7.78 L 78.87 7.78 Q 79.66 7.35 80.61 7.35 L 80.61 7.35 L 80.61 7.35 Q 82.71 7.35 82.71 9.38 L 82.71 9.38 L 82.71 9.38 Q 82.71 10.6 81.77 11.29 L 81.77 11.29 L 81.77 11.29 Q 80.82 11.98 79.58 11.98 L 79.58 11.98 L 79.58 11.98 Q 78.75 11.98 78.09 11.83 L 78.09 11.83 L 78.09 11.83 Q 78.08 11.97 78.08 12.26 L 78.08 12.26 L 78.08 12.26 Q 78.08 14.74 79.55 14.74 L 79.55 14.74 L 79.55 14.74 Q 80.93 14.74 81.8 13.37 L 81.8 13.37 L 81.8 13.37 Q 82.32 13.44 82.32 13.75 L 82.32 13.75 Z" stroke-linecap="round" />
</g>
		<g transform="matrix(0.64 0 0 0.64 -80.62 -2.31)"  >
<path style="stroke: none; stroke-width: 1; stroke-dasharray: none; stroke-linecap: butt; stroke-dashoffset: 0; stroke-linejoin: miter; stroke-miterlimit: 4; fill: rgb(29,29,27); fill-rule: nonzero; opacity: 1;"  transform=" translate(-50.01, -46.46)" d="M 44 46.07 V 46 a 5.74 5.74 0 0 0 -3.52 -2.72 h -0.14 a 11.6 11.6 0 0 0 -2.5 -0.47 a 15.62 15.62 0 0 1 -6.43 -2.38 a 0.75 0.75 0 0 0 -0.84 1.24 a 17.29 17.29 0 0 0 2 1.11 c 0 0.1 -0.09 0.2 -0.12 0.31 a 6.09 6.09 0 0 0 4.15 7.51 a 6.46 6.46 0 0 0 1.78 0.25 a 5.9 5.9 0 0 0 4.69 -2.28 a 10.33 10.33 0 0 1 -0.18 3 a 0.75 0.75 0 0 0 0.47 1 a 0.76 0.76 0 0 0 0.24 0 a 0.75 0.75 0 0 0 0.71 -0.51 a 11.57 11.57 0 0 0 0.23 -4.1 a 4.94 4.94 0 0 0 -0.54 -1.89 z m -4.47 -1.49 a 1.28 1.28 0 0 1 0 0.52 a 1.3 1.3 0 1 1 -2.53 -0.71 a 1.27 1.27 0 0 1 0.09 -0.17 l 0.6 0.07 a 10.89 10.89 0 0 1 1.86 0.3 z m 0.94 4.25 a 4.67 4.67 0 0 1 -3.48 0.32 a 4.59 4.59 0 0 1 -3.14 -5.67 v -0.12 a 15.83 15.83 0 0 0 1.7 0.55 v 0.06 A 2.8 2.8 0 1 0 41 45.14 a 3.86 3.86 0 0 1 1.48 1.32 a 4.27 4.27 0 0 1 -1.99 2.37 z M 67.57 43.07 c 0 -0.11 -0.08 -0.2 -0.12 -0.31 a 17.29 17.29 0 0 0 2 -1.11 a 0.75 0.75 0 0 0 -0.84 -1.24 a 15.62 15.62 0 0 1 -6.43 2.38 a 11.59 11.59 0 0 0 -2.52 0.47 h -0.12 A 5.74 5.74 0 0 0 56 46 v 0.05 a 4.94 4.94 0 0 0 -0.54 1.95 a 11.57 11.57 0 0 0 0.23 4.1 a 0.75 0.75 0 0 0 0.71 0.51 a 0.75 0.75 0 0 0 0.72 -1 a 10.27 10.27 0 0 1 -0.19 -3 a 5.9 5.9 0 0 0 4.69 2.28 a 6.46 6.46 0 0 0 1.78 -0.25 a 6.09 6.09 0 0 0 4.17 -7.57 z m -5.3 1.22 l 0.6 -0.07 a 1.26 1.26 0 0 1 0.09 0.17 a 1.3 1.3 0 0 1 -0.89 1.6 a 1.27 1.27 0 0 1 -1.63 -1.41 a 10.89 10.89 0 0 1 1.84 -0.29 z m 0.73 4.86 a 4.67 4.67 0 0 1 -3.48 -0.32 a 4.27 4.27 0 0 1 -2 -2.38 A 3.86 3.86 0 0 1 59 45.14 a 2.84 2.84 0 0 0 0.07 0.37 a 2.8 2.8 0 0 0 2.69 2 A 2.8 2.8 0 0 0 64.41 44 v -0.06 a 15.83 15.83 0 0 0 1.7 -0.55 v 0.12 A 4.59 4.59 0 0 1 63 49.15 z" stroke-linecap="round" />
</g>
		<g transform="matrix(0.64 0 0 0.64 -81.81 -7.7)"  >
<path style="stroke: none; stroke-width: 1; stroke-dasharray: none; stroke-linecap: butt; stroke-dashoffset: 0; stroke-linejoin: miter; stroke-miterlimit: 4; fill: rgb(29,29,27); fill-rule: nonzero; opacity: 1;"  transform=" translate(-48.16, -38.06)" d="M 46.33 44.89 c -0.16 -2.25 -2 -3.68 -5.15 -3.92 a 11.57 11.57 0 0 1 -4.68 -1.69 a 0.75 0.75 0 0 0 -0.83 1.25 a 12.92 12.92 0 0 0 5.4 1.93 c 1.35 0.1 3.63 0.57 3.77 2.53 a 0.75 0.75 0 0 0 0.75 0.7 h 0.05 a 0.75 0.75 0 0 0 0.69 -0.8 z M 59.31 42.46 a 12.92 12.92 0 0 0 5.4 -1.93 a 0.75 0.75 0 0 0 -0.83 -1.25 A 11.58 11.58 0 0 1 59.19 41 c -3.11 0.24 -5 1.67 -5.15 3.92 a 0.75 0.75 0 0 0 0.7 0.8 h 0.05 a 0.75 0.75 0 0 0 0.75 -0.7 c 0.14 -2.02 2.46 -2.45 3.77 -2.56 z M 34.64 37.25 a 0.75 0.75 0 1 0 1.16 -0.95 l -3.19 -3.92 a 0.75 0.75 0 1 0 -1.16 0.95 z M 38 35.08 a 0.75 0.75 0 0 0 0.7 0.48 a 0.75 0.75 0 0 0 0.7 -1 l -1.41 -3.68 a 0.75 0.75 0 1 0 -1.4 0.54 z M 42 35.19 a 0.75 0.75 0 0 0 0.75 -0.69 l 0.25 -3.18 a 0.75 0.75 0 0 0 -0.69 -0.81 a 0.74 0.74 0 0 0 -0.81 0.69 l -0.25 3.19 a 0.75 0.75 0 0 0 0.75 0.8 z" stroke-linecap="round" />
</g>
		<g transform="matrix(0.64 0 0 0.64 -80.65 -0.05)"  >
<path style="stroke: none; stroke-width: 1; stroke-dasharray: none; stroke-linecap: butt; stroke-dashoffset: 0; stroke-linejoin: miter; stroke-miterlimit: 4; fill: rgb(29,29,27); fill-rule: nonzero; opacity: 1;"  transform=" translate(-50.02, -50.05)" d="M 95.31 61 c -3.9 -1.24 -13.08 -1.13 -20.54 -0.79 c 5 -6.31 5 -12.41 4.11 -15.28 c -0.68 -2.15 -1.73 -7.57 -0.39 -9.68 a 1.56 1.56 0 0 1 1.18 -0.77 c 1.76 -0.23 2.08 -2.06 2.33 -3.52 a 8.38 8.38 0 0 1 0.35 -1.54 a 4.25 4.25 0 0 1 1.22 -1.37 a 10.59 10.59 0 0 0 3.18 -4.23 c 1.59 -3.91 -0.54 -5.84 -0.63 -5.92 a 0.73 0.73 0 0 0 -0.28 -0.13 h -0.14 a 6.16 6.16 0 0 0 -4.81 0.73 c -0.68 0.33 -1.52 0.73 -2.76 1.25 a 6.88 6.88 0 0 1 -8 -1.32 c -4.5 -4.32 -7.67 -5.57 -20.08 -5.57 s -15.54 1.26 -20 5.57 a 6.88 6.88 0 0 1 -8 1.32 a 51.69 51.69 0 0 1 -2.76 -1.25 a 6.16 6.16 0 0 0 -4.81 -0.73 h -0.14 a 0.73 0.73 0 0 0 -0.28 0.13 c -0.09 0.08 -2.22 2 -0.63 5.92 a 10.59 10.59 0 0 0 3.18 4.23 a 4.26 4.26 0 0 1 1.22 1.37 A 8.4 8.4 0 0 1 18 31 c 0.25 1.47 0.56 3.29 2.33 3.52 a 1.56 1.56 0 0 1 1.18 0.77 c 1.34 2.11 0.29 7.53 -0.39 9.68 c -0.91 2.87 -0.87 9 4.11 15.28 c -7.46 -0.34 -16.64 -0.45 -20.54 0.79 a 0.75 0.75 0 0 0 0.46 1.43 c 4.09 -1.3 15 -1 21.18 -0.66 h 0.25 l 0.65 0.69 c -7.68 0.11 -12.89 0.64 -15.5 1.58 a 0.75 0.75 0 1 0 0.51 1.41 c 2.58 -0.93 8.3 -1.45 16.56 -1.51 c 0.35 0.3 0.71 0.59 1.07 0.88 c -6.47 0.36 -17 1.21 -21 3 a 0.75 0.75 0 0 0 0.6 1.37 c 4.17 -1.83 16.18 -2.64 22.22 -2.95 l 1 0.72 l 0.1 0.07 c -6.29 0.61 -10.59 1.4 -12.79 2.36 a 0.75 0.75 0 0 0 0.6 1.37 c 2.07 -0.91 6.45 -1.69 12.72 -2.28 A 19.94 19.94 0 0 0 34 74 c 1.63 4.32 3.86 5.38 6.46 5.6 a 5.67 5.67 0 0 0 1.52 1.81 a 15.18 15.18 0 0 0 -3.39 4.47 a 0.75 0.75 0 0 0 1.4 0.54 c 0.27 -0.7 1.08 -2 3.29 -4.19 a 10.86 10.86 0 0 0 2 0.78 a 11.32 11.32 0 0 0 -0.92 3.43 a 0.75 0.75 0 0 0 0.71 0.79 a 0.75 0.75 0 0 0 0.75 -0.71 a 10.34 10.34 0 0 1 0.91 -3.17 a 19.89 19.89 0 0 0 6.54 0 a 10.5 10.5 0 0 1 0.91 3.17 a 0.75 0.75 0 0 0 0.75 0.71 a 0.75 0.75 0 0 0 0.71 -0.79 a 11.32 11.32 0 0 0 -0.89 -3.44 a 10.86 10.86 0 0 0 2 -0.78 c 2.21 2.19 3 3.49 3.29 4.19 a 0.75 0.75 0 0 0 1.4 -0.54 a 15.18 15.18 0 0 0 -3.39 -4.47 a 5.67 5.67 0 0 0 1.52 -1.81 c 2.6 -0.22 4.83 -1.27 6.45 -5.59 a 19.92 19.92 0 0 0 0.65 -5.45 c 6.27 0.59 10.66 1.37 12.72 2.28 a 0.75 0.75 0 1 0 0.6 -1.37 c -2.22 -1 -6.6 -1.77 -13 -2.38 l 0.8 -0.56 l 0.31 -0.22 c 6 0.3 18.2 1.11 22.42 3 a 0.75 0.75 0 0 0 0.6 -1.37 c -4.06 -1.78 -14.61 -2.62 -21.07 -3 q 0.57 -0.43 1.11 -0.88 c 8.28 0.05 14 0.57 16.59 1.51 a 0.75 0.75 0 0 0 0.51 -1.41 c -2.6 -0.94 -7.81 -1.47 -15.5 -1.58 l 0.65 -0.69 h 0.25 c 6.15 -0.31 17.09 -0.64 21.18 0.66 a 0.75 0.75 0 0 0 0.47 -1.54 z m -42 18.91 a 0.75 0.75 0 1 0 -1.3 0.75 c 0.16 0.27 0.39 0.7 0.64 1.2 a 18.15 18.15 0 0 1 -5.22 0 c 0.35 -0.71 0.63 -1.19 0.64 -1.2 a 0.75 0.75 0 1 0 -1.3 -0.75 c 0 0.06 -0.42 0.73 -0.87 1.66 a 7 7 0 0 1 -3.58 -2 h 2.43 A 6 6 0 0 0 50 76.43 a 6 6 0 0 0 5.29 3.13 h 2.43 a 7 7 0 0 1 -3.58 2 c -0.45 -0.9 -0.83 -1.56 -0.87 -1.63 z m 17.1 -17.26 l -0.08 0.06 c -0.84 0.7 -1.77 1.38 -2.68 2 h -0.78 c 0.13 -1.71 0.45 -3.25 1.07 -3.71 a 0.75 0.75 0 0 0 -0.94 -1.2 c -1 0.83 -1.44 2.64 -1.63 4.83 h -0.61 a 0.73 0.73 0 0 0 -0.77 0.73 a 0.75 0.75 0 0 0 0.73 0.77 h 0.56 v 0.74 h -0.18 a 0.76 0.76 0 0 0 -0.81 0.68 a 0.75 0.75 0 0 0 0.68 0.81 h 0.21 a 20 20 0 0 1 -0.56 5.05 c -1.41 3.75 -3.1 4.54 -5.55 4.66 H 55.29 a 4.54 4.54 0 0 1 -4.53 -4.46 a 5.51 5.51 0 0 1 1.16 -0.84 c 1 -0.64 2.47 -1.52 1.93 -2.79 c -0.19 -0.44 -0.06 -0.65 1.66 -1.82 l 0.63 -0.43 a 2.48 2.48 0 0 0 1.3 -2 a 2.08 2.08 0 0 0 -0.95 -1.6 a 0.74 0.74 0 0 0 -1 0.22 a 0.76 0.76 0 0 0 0.21 1 c 0.08 0.06 0.26 0.23 0.27 0.37 s -0.17 0.41 -0.66 0.75 l -0.62 0.43 c -1.63 1.1 -2.91 2 -2.2 3.57 c -0.08 0.25 -0.89 0.74 -1.33 1 a 10.22 10.22 0 0 0 -1.13 0.77 a 10.22 10.22 0 0 0 -1.13 -0.77 a 7.46 7.46 0 0 1 -1.33 -0.93 c 0.71 -1.67 -0.58 -2.54 -2.2 -3.65 l -0.62 -0.43 c -0.48 -0.34 -0.66 -0.61 -0.66 -0.75 s 0.18 -0.31 0.26 -0.37 a 0.75 0.75 0 0 0 -0.81 -1.26 a 2.08 2.08 0 0 0 -0.95 1.6 a 2.48 2.48 0 0 0 1.3 2 l 0.63 0.43 c 1.73 1.17 1.85 1.38 1.66 1.82 c -0.54 1.28 0.89 2.15 1.93 2.79 a 10.47 10.47 0 0 1 1.16 0.77 a 4.54 4.54 0 0 1 -4.54 4.52 h -1.56 c -3.72 0.09 -6 0.14 -7.78 -4.66 a 20.07 20.07 0 0 1 -0.56 -5.05 h 0.21 a 0.75 0.75 0 1 0 -0.13 -1.5 h -0.14 v -0.74 h 0.56 a 0.75 0.75 0 0 0 0 -1.5 h -0.61 c -0.19 -2.19 -0.58 -4 -1.63 -4.83 A 0.75 0.75 0 1 0 32.06 61 c 0.62 0.49 0.91 2 1.06 3.71 h -0.95 c -0.85 -0.64 -1.7 -1.31 -2.48 -2 a 0.73 0.73 0 0 0 -0.15 -0.14 c -0.26 -0.23 -0.52 -0.46 -0.76 -0.69 l 2.33 0.15 h 0.06 a 0.75 0.75 0 0 0 0.06 -1.5 s -1.57 -0.12 -4 -0.25 c -5.44 -6.19 -5.58 -12.2 -4.72 -14.92 c 0 -0.08 2.33 -7.62 0.23 -10.93 a 3.07 3.07 0 0 0 -2.2 -1.43 c -0.62 -0.08 -0.82 -1 -1 -2.29 a 9.51 9.51 0 0 0 -0.44 -1.84 a 5.37 5.37 0 0 0 -1.63 -1.95 a 9 9 0 0 1 -2.78 -3.67 c -1 -2.36 -0.23 -3.66 0.1 -4.08 a 3.19 3.19 0 0 1 2.07 0.54 c 0.07 0.06 7.52 5.52 10.79 5.52 H 28 c -3 2.15 -4.76 4.9 -4.76 7.59 a 0.75 0.75 0 0 0 1.5 0 c 0 -2.81 2.6 -5.89 6.63 -7.86 a 13.71 13.71 0 0 0 4.48 -1.49 a 0.75 0.75 0 1 0 -0.73 -1.31 a 15.48 15.48 0 0 1 -7.56 1.58 c -1.25 0 -3.64 -1.21 -5.86 -2.55 a 8.3 8.3 0 0 0 9.3 -1.73 c 4 -3.82 6.49 -5.15 19 -5.15 s 15 1.34 19 5.15 a 8.18 8.18 0 0 0 5.77 2.45 a 9.77 9.77 0 0 0 3.44 -0.68 c -2.21 1.33 -4.6 2.53 -5.84 2.53 a 15.48 15.48 0 0 1 -7.56 -1.58 a 0.75 0.75 0 0 0 -0.73 1.31 A 13.72 13.72 0 0 0 68.59 25 c 4 2 6.63 5 6.63 7.86 a 0.75 0.75 0 0 0 1.5 0 c 0 -2.7 -1.77 -5.45 -4.76 -7.59 h 0.44 c 3.27 0 10.72 -5.46 10.79 -5.52 a 3.19 3.19 0 0 1 2.06 -0.54 c 0.33 0.43 1.05 1.73 0.1 4.08 a 9 9 0 0 1 -2.78 3.67 a 5.37 5.37 0 0 0 -1.63 1.95 a 9.49 9.49 0 0 0 -0.44 1.84 c -0.23 1.33 -0.42 2.21 -1 2.29 a 3.07 3.07 0 0 0 -2.25 1.45 c -2.11 3.31 0.2 10.86 0.23 10.93 c 0.87 2.73 0.72 8.74 -4.72 14.92 c -2.39 0.13 -4 0.25 -4 0.25 a 0.75 0.75 0 0 0 0.06 1.5 h 0.06 l 2.33 -0.15 c -0.21 0.23 -0.52 0.47 -0.8 0.71 z" stroke-linecap="round" />
</g>
		<g transform="matrix(0.64 0 0 0.64 -72.38 -10.35)"  >
<path style="stroke: none; stroke-width: 1; stroke-dasharray: none; stroke-linecap: butt; stroke-dashoffset: 0; stroke-linejoin: miter; stroke-miterlimit: 4; fill: rgb(29,29,27); fill-rule: nonzero; opacity: 1;"  transform=" translate(-62.83, -33.93)" d="M 64.77 37.53 a 0.75 0.75 0 0 0 0.58 -0.28 l 3.19 -3.92 a 0.75 0.75 0 1 0 -1.16 -0.95 l -3.19 3.92 a 0.75 0.75 0 0 0 0.58 1.22 z M 61.07 35.51 a 0.74 0.74 0 0 0 0.27 0 a 0.75 0.75 0 0 0 0.7 -0.48 l 1.41 -3.68 a 0.75 0.75 0 1 0 -1.4 -0.54 l -1.41 3.68 a 0.75 0.75 0 0 0 0.43 1.02 z M 58 35.2 a 0.75 0.75 0 0 0 0.69 -0.81 l -0.25 -3.19 a 0.75 0.75 0 0 0 -1.5 0.12 l 0.25 3.19 a 0.75 0.75 0 0 0 0.81 0.69 z" stroke-linecap="round" />
</g>
		<g transform="matrix(0.64 0 0 0.64 -88.22 12.69)"  >
<circle style="stroke: none; stroke-width: 1; stroke-dasharray: none; stroke-linecap: butt; stroke-dashoffset: 0; stroke-linejoin: miter; stroke-miterlimit: 4; fill: rgb(29,29,27); fill-rule: nonzero; opacity: 1;"  cx="0" cy="0" r="1.05" />
</g>
		<g transform="matrix(0.64 0 0 0.64 -87.99 14.98)"  >
<circle style="stroke: none; stroke-width: 1; stroke-dasharray: none; stroke-linecap: butt; stroke-dashoffset: 0; stroke-linejoin: miter; stroke-miterlimit: 4; fill: rgb(29,29,27); fill-rule: nonzero; opacity: 1;"  cx="0" cy="0" r="1.05" />
</g>
		<g transform="matrix(0.64 0 0 0.64 -86.24 16.49)"  >
<circle style="stroke: none; stroke-width: 1; stroke-dasharray: none; stroke-linecap: butt; stroke-dashoffset: 0; stroke-linejoin: miter; stroke-miterlimit: 4; fill: rgb(29,29,27); fill-rule: nonzero; opacity: 1;"  cx="0" cy="0" r="1.05" />
</g>
		<g transform="matrix(0.64 0 0 0.64 -85.65 14.15)"  >
<circle style="stroke: none; stroke-width: 1; stroke-dasharray: none; stroke-linecap: butt; stroke-dashoffset: 0; stroke-linejoin: miter; stroke-miterlimit: 4; fill: rgb(29,29,27); fill-rule: nonzero; opacity: 1;"  cx="0" cy="0" r="1.05" />
</g>
		<g transform="matrix(0.64 0 0 0.64 -83.77 15.33)"  >
<circle style="stroke: none; stroke-width: 1; stroke-dasharray: none; stroke-linecap: butt; stroke-dashoffset: 0; stroke-linejoin: miter; stroke-miterlimit: 4; fill: rgb(29,29,27); fill-rule: nonzero; opacity: 1;"  cx="0" cy="0" r="1.05" />
</g>
		<g transform="matrix(0.64 0 0 0.64 -72.99 12.69)"  >
<circle style="stroke: none; stroke-width: 1; stroke-dasharray: none; stroke-linecap: butt; stroke-dashoffset: 0; stroke-linejoin: miter; stroke-miterlimit: 4; fill: rgb(29,29,27); fill-rule: nonzero; opacity: 1;"  cx="0" cy="0" r="1.05" />
</g>
		<g transform="matrix(0.64 0 0 0.64 -73.21 14.98)"  >
<circle style="stroke: none; stroke-width: 1; stroke-dasharray: none; stroke-linecap: butt; stroke-dashoffset: 0; stroke-linejoin: miter; stroke-miterlimit: 4; fill: rgb(29,29,27); fill-rule: nonzero; opacity: 1;"  cx="0" cy="0" r="1.05" />
</g>
		<g transform="matrix(0.64 0 0 0.64 -74.97 16.49)"  >
<circle style="stroke: none; stroke-width: 1; stroke-dasharray: none; stroke-linecap: butt; stroke-dashoffset: 0; stroke-linejoin: miter; stroke-miterlimit: 4; fill: rgb(29,29,27); fill-rule: nonzero; opacity: 1;"  cx="0" cy="0" r="1.05" />
</g>
		<g transform="matrix(0.64 0 0 0.64 -75.56 14.15)"  >
<circle style="stroke: none; stroke-width: 1; stroke-dasharray: none; stroke-linecap: butt; stroke-dashoffset: 0; stroke-linejoin: miter; stroke-miterlimit: 4; fill: rgb(29,29,27); fill-rule: nonzero; opacity: 1;"  cx="0" cy="0" r="1.05" />
</g>
		<g transform="matrix(0.64 0 0 0.64 -77.43 15.33)"  >
<circle style="stroke: none; stroke-width: 1; stroke-dasharray: none; stroke-linecap: butt; stroke-dashoffset: 0; stroke-linejoin: miter; stroke-miterlimit: 4; fill: rgb(29,29,27); fill-rule: nonzero; opacity: 1;"  cx="0" cy="0" r="1.05" />
</g>
		<g transform="matrix(0.64 0 0 0.64 -80.62 6.32)"  >
<path style="stroke: none; stroke-width: 1; stroke-dasharray: none; stroke-linecap: butt; stroke-dashoffset: 0; stroke-linejoin: miter; stroke-miterlimit: 4; fill: rgb(29,29,27); fill-rule: nonzero; opacity: 1;"  transform=" translate(-50.01, -59.93)" d="M 53.56 52.5 a 0.75 0.75 0 0 0 -0.81 0.69 A 9.21 9.21 0 0 1 50 58.58 a 9.16 9.16 0 0 1 -2.73 -5.4 a 0.75 0.75 0 0 0 -1.5 0.12 a 11 11 0 0 0 3.73 6.86 a 0.75 0.75 0 0 0 0.47 0.17 a 0.75 0.75 0 0 0 0.47 -0.17 a 11 11 0 0 0 3.73 -6.86 a 0.75 0.75 0 0 0 -0.61 -0.8 z M 40.37 55.2 a 0.75 0.75 0 0 0 -1 0.27 c -0.2 0.35 -0.46 0.72 -0.73 1.11 c -1.34 1.94 -3.36 4.88 -0.51 8 a 0.75 0.75 0 0 0 1.1 -1 c -1.89 -2.05 -0.93 -3.82 0.64 -6.1 c 0.29 -0.43 0.57 -0.83 0.79 -1.21 a 0.75 0.75 0 0 0 -0.29 -1.07 z M 60.69 55.47 a 0.75 0.75 0 1 0 -1.3 0.75 c 0.22 0.38 0.5 0.78 0.79 1.21 c 1.57 2.28 2.53 4.05 0.64 6.1 a 0.75 0.75 0 1 0 1.1 1 c 2.85 -3.09 0.83 -6 -0.51 -8 c -0.25 -0.34 -0.51 -0.71 -0.72 -1.06 z M 41.89 65 a 0.75 0.75 0 0 0 -1.43 -0.46 a 4.13 4.13 0 0 0 1.91 4.82 a 0.75 0.75 0 0 0 0.75 -1.3 A 2.62 2.62 0 0 1 41.89 65 z M 57.62 69.33 a 4.13 4.13 0 0 0 1.91 -4.82 a 0.75 0.75 0 0 0 -1.43 0.46 A 2.62 2.62 0 0 1 56.87 68 a 0.75 0.75 0 0 0 0.75 1.3 z M 52.88 65.15 a 3.83 3.83 0 0 1 -5.77 0 a 0.75 0.75 0 0 0 -1.16 1 a 5.32 5.32 0 0 0 8.08 0 a 0.75 0.75 0 0 0 -1.16 -1 z M 30.51 50.52 a 0.75 0.75 0 1 0 -0.72 1.31 c 2.63 1.45 3.77 3.59 3.77 4.36 a 0.75 0.75 0 0 0 1.5 0 c 0 -1.55 -1.7 -4.1 -4.55 -5.67 z M 70.59 50.82 a 0.75 0.75 0 0 0 -1 -0.3 C 66.72 52.09 65 54.64 65 56.2 a 0.75 0.75 0 0 0 1.5 0 c 0 -0.77 1.14 -2.92 3.77 -4.36 a 0.75 0.75 0 0 0 0.32 -1.02 z" stroke-linecap="round" />
</g>
		<g transform="matrix(0.5 0 0 0.5 36.52 14.83)"  >
<path style="stroke: none; stroke-width: 1; stroke-dasharray: none; stroke-linecap: butt; stroke-dashoffset: 0; stroke-linejoin: miter; stroke-miterlimit: 4; fill: rgb(0,0,0); fill-rule: nonzero; opacity: 1;"  transform=" translate(-149.66, -8.4)" d="M 7.74 13.02 L 6.58 10.12 L 2.16 10.12 L 1.01 13.02 L 0.27 13.02 L 3.96 3.78 L 4.79 3.78 L 8.48 13.02 L 7.74 13.02 Z M 2.42 9.48 L 6.33 9.48 L 4.72 5.45 L 4.38 4.47 L 4.37 4.47 L 4.03 5.42 L 2.42 9.48 Z M 20.52 8.5 L 24.32 8.5 L 24.32 13.02 L 23.76 13.02 L 23.73 11.41 L 23.73 11.41 Q 23.35 12.25 22.55 12.71 L 22.55 12.71 L 22.55 12.71 Q 21.74 13.16 20.55 13.16 L 20.55 13.16 L 20.55 13.16 Q 19.29 13.16 18.35 12.58 L 18.35 12.58 L 18.35 12.58 Q 17.4 12 16.89 10.92 L 16.89 10.92 L 16.89 10.92 Q 16.38 9.84 16.38 8.4 L 16.38 8.4 L 16.38 8.4 Q 16.38 6.96 16.91 5.88 L 16.91 5.88 L 16.91 5.88 Q 17.43 4.8 18.38 4.22 L 18.38 4.22 L 18.38 4.22 Q 19.33 3.64 20.59 3.64 L 20.59 3.64 L 20.59 3.64 Q 22.01 3.64 22.9 4.2 L 22.9 4.2 L 22.9 4.2 Q 23.8 4.76 24.25 5.91 L 24.25 5.91 L 23.6 6.24 L 23.6 6.24 Q 23.28 5.28 22.52 4.78 L 22.52 4.78 L 22.52 4.78 Q 21.76 4.28 20.59 4.28 L 20.59 4.28 L 20.59 4.28 Q 19.56 4.28 18.77 4.78 L 18.77 4.78 L 18.77 4.78 Q 17.99 5.28 17.56 6.21 L 17.56 6.21 L 17.56 6.21 Q 17.12 7.14 17.12 8.4 L 17.12 8.4 L 17.12 8.4 Q 17.12 10.32 18.04 11.42 L 18.04 11.42 L 18.04 11.42 Q 18.96 12.52 20.58 12.52 L 20.58 12.52 L 20.58 12.52 Q 21.59 12.52 22.29 12.12 L 22.29 12.12 L 22.29 12.12 Q 22.99 11.72 23.32 11.07 L 23.32 11.07 L 23.32 11.07 Q 23.66 10.42 23.66 9.67 L 23.66 9.67 L 23.66 9.16 L 20.52 9.16 L 20.52 8.5 Z M 34.5 12.38 L 40.33 12.38 L 40.33 13.02 L 33.8 13.02 L 33.8 3.78 L 40.11 3.78 L 40.11 4.42 L 34.5 4.42 L 34.5 7.99 L 38.93 7.99 L 38.93 8.65 L 34.5 8.65 L 34.5 12.38 Z M 56.46 3.78 L 56.46 13.02 L 55.59 13.02 L 50.69 5.77 L 50.01 4.54 L 49.99 4.54 L 50.04 5.7 L 50.04 13.02 L 49.36 13.02 L 49.36 3.78 L 50.25 3.78 L 55.13 11.02 L 55.83 12.26 L 55.8 11.1 L 55.8 3.78 L 56.46 3.78 Z M 73.68 10.68 L 73.68 10.68 Q 73.29 11.86 72.32 12.51 L 72.32 12.51 L 72.32 12.51 Q 71.34 13.16 69.99 13.16 L 69.99 13.16 L 69.99 13.16 Q 68.73 13.16 67.77 12.58 L 67.77 12.58 L 67.77 12.58 Q 66.82 12 66.3 10.92 L 66.3 10.92 L 66.3 10.92 Q 65.79 9.84 65.79 8.4 L 65.79 8.4 L 65.79 8.4 Q 65.79 6.96 66.3 5.88 L 66.3 5.88 L 66.3 5.88 Q 66.82 4.8 67.77 4.22 L 67.77 4.22 L 67.77 4.22 Q 68.73 3.64 69.97 3.64 L 69.97 3.64 L 69.97 3.64 Q 72.74 3.64 73.56 5.92 L 73.56 5.92 L 72.87 6.24 L 72.87 6.24 Q 72.55 5.26 71.84 4.77 L 71.84 4.77 L 71.84 4.77 Q 71.13 4.28 70.01 4.28 L 70.01 4.28 L 70.01 4.28 Q 68.98 4.28 68.19 4.78 L 68.19 4.78 L 68.19 4.78 Q 67.4 5.28 66.96 6.21 L 66.96 6.21 L 66.96 6.21 Q 66.53 7.14 66.53 8.4 L 66.53 8.4 L 66.53 8.4 Q 66.53 9.66 66.96 10.59 L 66.96 10.59 L 66.96 10.59 Q 67.38 11.52 68.16 12.02 L 68.16 12.02 L 68.16 12.02 Q 68.94 12.52 69.99 12.52 L 69.99 12.52 L 69.99 12.52 Q 71.11 12.52 71.89 11.97 L 71.89 11.97 L 71.89 11.97 Q 72.67 11.42 72.98 10.42 L 72.98 10.42 L 73.68 10.68 Z M 83.44 12.38 L 89.28 12.38 L 89.28 13.02 L 82.74 13.02 L 82.74 3.78 L 89.05 3.78 L 89.05 4.42 L 83.44 4.42 L 83.44 7.99 L 87.88 7.99 L 87.88 8.65 L 83.44 8.65 L 83.44 12.38 Z M 112.6 3.78 L 112.6 3.78 Q 114.81 3.78 116.01 4.95 L 116.01 4.95 L 116.01 4.95 Q 117.21 6.12 117.21 8.33 L 117.21 8.33 L 117.21 8.33 Q 117.21 10.6 116.01 11.81 L 116.01 11.81 L 116.01 11.81 Q 114.81 13.02 112.6 13.02 L 112.6 13.02 L 109.69 13.02 L 109.69 3.78 L 112.6 3.78 Z M 112.66 12.38 L 112.66 12.38 Q 114.51 12.38 115.49 11.33 L 115.49 11.33 L 115.49 11.33 Q 116.48 10.29 116.48 8.33 L 116.48 8.33 L 116.48 8.33 Q 116.48 6.45 115.49 5.44 L 115.49 5.44 L 115.49 5.44 Q 114.51 4.42 112.66 4.42 L 112.66 4.42 L 110.39 4.42 L 110.39 12.38 L 112.66 12.38 Z M 127.25 12.38 L 133.08 12.38 L 133.08 13.02 L 126.55 13.02 L 126.55 3.78 L 132.86 3.78 L 132.86 4.42 L 127.25 4.42 L 127.25 7.99 L 131.68 7.99 L 131.68 8.65 L 127.25 8.65 L 127.25 12.38 Z M 158.07 6.54 L 156.21 13.02 L 155.34 13.02 L 152.46 3.78 L 153.22 3.78 L 155.78 12.45 L 158.2 3.78 L 159.01 3.78 L 161.43 12.46 L 164.02 3.78 L 164.74 3.78 L 161.85 13.02 L 160.99 13.02 L 159.12 6.54 L 158.61 4.54 L 158.59 4.54 L 158.07 6.54 Z M 174.31 12.38 L 180.15 12.38 L 180.15 13.02 L 173.61 13.02 L 173.61 3.78 L 179.93 3.78 L 179.93 4.42 L 174.31 4.42 L 174.31 7.99 L 178.75 7.99 L 178.75 8.65 L 174.31 8.65 L 174.31 12.38 Z M 189.18 13.02 L 189.18 3.78 L 192.44 3.78 L 192.44 3.78 Q 193.96 3.78 194.71 4.41 L 194.71 4.41 L 194.71 4.41 Q 195.45 5.04 195.45 6.23 L 195.45 6.23 L 195.45 6.23 Q 195.45 7.04 195.01 7.6 L 195.01 7.6 L 195.01 7.6 Q 194.57 8.16 193.76 8.33 L 193.76 8.33 L 193.76 8.34 L 193.76 8.34 Q 194.66 8.48 195.18 9.07 L 195.18 9.07 L 195.18 9.07 Q 195.71 9.66 195.71 10.53 L 195.71 10.53 L 195.71 10.53 Q 195.71 11.72 194.86 12.37 L 194.86 12.37 L 194.86 12.37 Q 194.01 13.02 192.44 13.02 L 192.44 13.02 L 189.18 13.02 Z M 189.88 8.04 L 192.46 8.04 L 192.46 8.04 Q 194.71 8.04 194.71 6.23 L 194.71 6.23 L 194.71 6.23 Q 194.71 4.42 192.46 4.42 L 192.46 4.42 L 189.88 4.42 L 189.88 8.04 Z M 189.88 12.38 L 192.58 12.38 L 192.58 12.38 Q 193.76 12.38 194.36 11.9 L 194.36 11.9 L 194.36 11.9 Q 194.96 11.42 194.96 10.53 L 194.96 10.53 L 194.96 10.53 Q 194.96 9.62 194.36 9.15 L 194.36 9.15 L 194.36 9.15 Q 193.76 8.68 192.58 8.68 L 192.58 8.68 L 189.88 8.68 L 189.88 12.38 Z M 219.32 3.78 L 219.32 3.78 Q 221.54 3.78 222.73 4.95 L 222.73 4.95 L 222.73 4.95 Q 223.93 6.12 223.93 8.33 L 223.93 8.33 L 223.93 8.33 Q 223.93 10.6 222.73 11.81 L 222.73 11.81 L 222.73 11.81 Q 221.54 13.02 219.32 13.02 L 219.32 13.02 L 216.41 13.02 L 216.41 3.78 L 219.32 3.78 Z M 219.38 12.38 L 219.38 12.38 Q 221.23 12.38 222.22 11.33 L 222.22 11.33 L 222.22 11.33 Q 223.2 10.29 223.2 8.33 L 223.2 8.33 L 223.2 8.33 Q 223.2 6.45 222.22 5.44 L 222.22 5.44 L 222.22 5.44 Q 221.23 4.42 219.38 4.42 L 219.38 4.42 L 217.11 4.42 L 217.11 12.38 L 219.38 12.38 Z M 233.97 12.38 L 239.81 12.38 L 239.81 13.02 L 233.27 13.02 L 233.27 3.78 L 239.58 3.78 L 239.58 4.42 L 233.97 4.42 L 233.97 7.99 L 238.41 7.99 L 238.41 8.65 L 233.97 8.65 L 233.97 12.38 Z M 251.69 3.64 L 251.69 3.64 Q 254.3 3.64 255.18 5.68 L 255.18 5.68 L 254.58 6.17 L 254.58 6.17 Q 254.23 5.18 253.53 4.73 L 253.53 4.73 L 253.53 4.73 Q 252.84 4.28 251.71 4.28 L 251.71 4.28 L 251.71 4.28 Q 250.89 4.28 250.29 4.54 L 250.29 4.54 L 250.29 4.54 Q 249.69 4.79 249.38 5.22 L 249.38 5.22 L 249.38 5.22 Q 249.06 5.66 249.06 6.2 L 249.06 6.2 L 249.06 6.2 Q 249.06 6.73 249.33 7.08 L 249.33 7.08 L 249.33 7.08 Q 249.59 7.43 250.23 7.68 L 250.23 7.68 L 250.23 7.68 Q 250.87 7.92 251.99 8.12 L 251.99 8.12 L 251.99 8.12 Q 253.79 8.43 254.55 9.02 L 254.55 9.02 L 254.55 9.02 Q 255.3 9.6 255.3 10.64 L 255.3 10.64 L 255.3 10.64 Q 255.3 11.38 254.87 11.96 L 254.87 11.96 L 254.87 11.96 Q 254.44 12.53 253.65 12.84 L 253.65 12.84 L 253.65 12.84 Q 252.85 13.16 251.83 13.16 L 251.83 13.16 L 251.83 13.16 Q 250.38 13.16 249.38 12.58 L 249.38 12.58 L 249.38 12.58 Q 248.37 12 248.01 10.95 L 248.01 10.95 L 248.63 10.47 L 248.63 10.47 Q 248.91 11.47 249.75 11.99 L 249.75 11.99 L 249.75 11.99 Q 250.6 12.52 251.85 12.52 L 251.85 12.52 L 251.85 12.52 Q 253.05 12.52 253.81 12.03 L 253.81 12.03 L 253.81 12.03 Q 254.58 11.54 254.58 10.68 L 254.58 10.68 L 254.58 10.68 Q 254.58 9.94 253.95 9.51 L 253.95 9.51 L 253.95 9.51 Q 253.33 9.07 251.79 8.81 L 251.79 8.81 L 251.79 8.81 Q 250.49 8.58 249.73 8.26 L 249.73 8.26 L 249.73 8.26 Q 248.98 7.94 248.65 7.46 L 248.65 7.46 L 248.65 7.46 Q 248.32 6.99 248.32 6.27 L 248.32 6.27 L 248.32 6.27 Q 248.32 5.56 248.73 4.96 L 248.73 4.96 L 248.73 4.96 Q 249.14 4.35 249.91 4 L 249.91 4 L 249.91 4 Q 250.67 3.64 251.69 3.64 L 251.69 3.64 Z M 265.2 3.78 L 265.2 13.02 L 264.5 13.02 L 264.5 3.78 L 265.2 3.78 Z M 278.67 8.5 L 282.46 8.5 L 282.46 13.02 L 281.9 13.02 L 281.88 11.41 L 281.88 11.41 Q 281.5 12.25 280.69 12.71 L 280.69 12.71 L 280.69 12.71 Q 279.89 13.16 278.7 13.16 L 278.7 13.16 L 278.7 13.16 Q 277.44 13.16 276.49 12.58 L 276.49 12.58 L 276.49 12.58 Q 275.55 12 275.04 10.92 L 275.04 10.92 L 275.04 10.92 Q 274.53 9.84 274.53 8.4 L 274.53 8.4 L 274.53 8.4 Q 274.53 6.96 275.05 5.88 L 275.05 5.88 L 275.05 5.88 Q 275.58 4.8 276.53 4.22 L 276.53 4.22 L 276.53 4.22 Q 277.48 3.64 278.74 3.64 L 278.74 3.64 L 278.74 3.64 Q 280.15 3.64 281.05 4.2 L 281.05 4.2 L 281.05 4.2 Q 281.95 4.76 282.39 5.91 L 282.39 5.91 L 281.75 6.24 L 281.75 6.24 Q 281.43 5.28 280.67 4.78 L 280.67 4.78 L 280.67 4.78 Q 279.9 4.28 278.74 4.28 L 278.74 4.28 L 278.74 4.28 Q 277.7 4.28 276.92 4.78 L 276.92 4.78 L 276.92 4.78 Q 276.14 5.28 275.7 6.21 L 275.7 6.21 L 275.7 6.21 Q 275.27 7.14 275.27 8.4 L 275.27 8.4 L 275.27 8.4 Q 275.27 10.32 276.19 11.42 L 276.19 11.42 L 276.19 11.42 Q 277.1 12.52 278.73 12.52 L 278.73 12.52 L 278.73 12.52 Q 279.73 12.52 280.43 12.12 L 280.43 12.12 L 280.43 12.12 Q 281.13 11.72 281.47 11.07 L 281.47 11.07 L 281.47 11.07 Q 281.81 10.42 281.81 9.67 L 281.81 9.67 L 281.81 9.16 L 278.67 9.16 L 278.67 8.5 Z M 299.04 3.78 L 299.04 13.02 L 298.17 13.02 L 293.27 5.77 L 292.59 4.54 L 292.57 4.54 L 292.61 5.7 L 292.61 13.02 L 291.94 13.02 L 291.94 3.78 L 292.82 3.78 L 297.71 11.02 L 298.41 12.26 L 298.38 11.1 L 298.38 3.78 L 299.04 3.78 Z" stroke-linecap="round" />
</g>
</g>
</g>
</svg>