<svg width="145" height="31" viewBox="0 0 145 31" fill="none" xmlns="http://www.w3.org/2000/svg">
<rect width="145" height="31" rx="6" fill="#4877B5"/>
<path d="M56.082 10.0059H57.333L53.7305 20H52.582L49 10.0059H50.2305L52.5273 16.4727C52.7917 17.2155 53.0013 17.9378 53.1562 18.6396C53.3203 17.9014 53.5345 17.1654 53.7988 16.4316L56.082 10.0059ZM59.6777 20H58.543V12.5078H59.6777V20ZM58.4473 10.4775C58.4473 10.2178 58.5111 10.0286 58.6387 9.91016C58.7663 9.78711 58.9258 9.72559 59.1172 9.72559C59.2995 9.72559 59.4567 9.78711 59.5889 9.91016C59.721 10.0332 59.7871 10.2223 59.7871 10.4775C59.7871 10.7327 59.721 10.9242 59.5889 11.0518C59.4567 11.1748 59.2995 11.2363 59.1172 11.2363C58.9258 11.2363 58.7663 11.1748 58.6387 11.0518C58.5111 10.9242 58.4473 10.7327 58.4473 10.4775ZM65.249 20.1367C64.1416 20.1367 63.2666 19.7995 62.624 19.125C61.986 18.4505 61.667 17.514 61.667 16.3154C61.667 15.1077 61.9632 14.1484 62.5557 13.4375C63.1527 12.7266 63.9525 12.3711 64.9551 12.3711C65.8939 12.3711 66.6367 12.681 67.1836 13.3008C67.7305 13.916 68.0039 14.7295 68.0039 15.7412V16.459H62.8428C62.8656 17.3385 63.0866 18.0062 63.5059 18.4619C63.9297 18.9176 64.5244 19.1455 65.29 19.1455C66.0967 19.1455 66.8942 18.9769 67.6826 18.6396V19.6514C67.2816 19.8245 66.901 19.9476 66.541 20.0205C66.1855 20.098 65.7549 20.1367 65.249 20.1367ZM64.9414 13.3213C64.3398 13.3213 63.859 13.5173 63.499 13.9092C63.1436 14.3011 62.9339 14.8434 62.8701 15.5361H66.7871C66.7871 14.8206 66.6276 14.2738 66.3086 13.8955C65.9896 13.5127 65.5339 13.3213 64.9414 13.3213ZM76.0635 20L74.6895 15.6045C74.6029 15.3356 74.4411 14.7249 74.2041 13.7725H74.1494C73.9671 14.57 73.8076 15.1852 73.6709 15.6182L72.2559 20H70.9434L68.8994 12.5078H70.0889C70.5719 14.39 70.9388 15.8232 71.1895 16.8076C71.4447 17.792 71.5905 18.4551 71.627 18.7969H71.6816C71.7318 18.5371 71.8115 18.2021 71.9209 17.792C72.0348 17.3773 72.1328 17.0492 72.2148 16.8076L73.5889 12.5078H74.8193L76.1592 16.8076C76.4144 17.5915 76.5876 18.25 76.6787 18.7832H76.7334C76.7516 18.6191 76.7995 18.3662 76.877 18.0244C76.959 17.6826 77.4352 15.8438 78.3057 12.5078H79.4814L77.4102 20H76.0635ZM89.5781 18.9951H89.5166C88.9925 19.7562 88.2087 20.1367 87.165 20.1367C86.1852 20.1367 85.4219 19.8018 84.875 19.1318C84.3327 18.4619 84.0615 17.5094 84.0615 16.2744C84.0615 15.0394 84.335 14.0801 84.8818 13.3965C85.4287 12.7129 86.1898 12.3711 87.165 12.3711C88.1813 12.3711 88.9606 12.7402 89.5029 13.4785H89.5918L89.5439 12.9385L89.5166 12.4121V9.36328H90.6514V20H89.7285L89.5781 18.9951ZM87.3086 19.1865C88.0833 19.1865 88.6439 18.9769 88.9902 18.5576C89.3411 18.1338 89.5166 17.4525 89.5166 16.5137V16.2744C89.5166 15.2126 89.3389 14.4561 88.9834 14.0049C88.6325 13.5492 88.0697 13.3213 87.2949 13.3213C86.6296 13.3213 86.1191 13.5811 85.7637 14.1006C85.4128 14.6156 85.2373 15.3447 85.2373 16.2881C85.2373 17.2451 85.4128 17.9674 85.7637 18.4551C86.1146 18.9427 86.6296 19.1865 87.3086 19.1865ZM96.2295 20.1367C95.1221 20.1367 94.2471 19.7995 93.6045 19.125C92.9665 18.4505 92.6475 17.514 92.6475 16.3154C92.6475 15.1077 92.9437 14.1484 93.5361 13.4375C94.1331 12.7266 94.9329 12.3711 95.9355 12.3711C96.8743 12.3711 97.6172 12.681 98.1641 13.3008C98.7109 13.916 98.9844 14.7295 98.9844 15.7412V16.459H93.8232C93.846 17.3385 94.0671 18.0062 94.4863 18.4619C94.9102 18.9176 95.5049 19.1455 96.2705 19.1455C97.0771 19.1455 97.8747 18.9769 98.6631 18.6396V19.6514C98.262 19.8245 97.8815 19.9476 97.5215 20.0205C97.166 20.098 96.7354 20.1367 96.2295 20.1367ZM95.9219 13.3213C95.3203 13.3213 94.8395 13.5173 94.4795 13.9092C94.124 14.3011 93.9144 14.8434 93.8506 15.5361H97.7676C97.7676 14.8206 97.6081 14.2738 97.2891 13.8955C96.9701 13.5127 96.5143 13.3213 95.9219 13.3213ZM103.346 19.2002C103.546 19.2002 103.74 19.1865 103.927 19.1592C104.114 19.1273 104.262 19.0954 104.371 19.0635V19.9316C104.248 19.9909 104.066 20.0387 103.824 20.0752C103.587 20.1162 103.373 20.1367 103.182 20.1367C101.732 20.1367 101.008 19.3734 101.008 17.8467V13.3896H99.9346V12.8428L101.008 12.3711L101.486 10.7715H102.143V12.5078H104.316V13.3896H102.143V17.7988C102.143 18.25 102.25 18.5964 102.464 18.8379C102.678 19.0794 102.972 19.2002 103.346 19.2002ZM110.482 20L110.257 18.9336H110.202C109.828 19.403 109.455 19.722 109.081 19.8906C108.712 20.0547 108.249 20.1367 107.693 20.1367C106.951 20.1367 106.367 19.9453 105.943 19.5625C105.524 19.1797 105.314 18.6351 105.314 17.9287C105.314 16.4157 106.524 15.6227 108.944 15.5498L110.216 15.5088V15.0439C110.216 14.4561 110.088 14.0231 109.833 13.7451C109.582 13.4626 109.179 13.3213 108.623 13.3213C107.999 13.3213 107.292 13.5127 106.504 13.8955L106.155 13.0273C106.524 12.8268 106.928 12.6696 107.365 12.5557C107.807 12.4417 108.249 12.3848 108.691 12.3848C109.585 12.3848 110.245 12.583 110.674 12.9795C111.107 13.376 111.323 14.0117 111.323 14.8867V20H110.482ZM107.919 19.2002C108.625 19.2002 109.179 19.0065 109.58 18.6191C109.986 18.2318 110.188 17.6895 110.188 16.9922V16.3154L109.054 16.3633C108.151 16.3952 107.5 16.5365 107.099 16.7871C106.702 17.0332 106.504 17.4183 106.504 17.9424C106.504 18.3525 106.627 18.6647 106.873 18.8789C107.124 19.0931 107.472 19.2002 107.919 19.2002ZM114.803 20H113.668V12.5078H114.803V20ZM113.572 10.4775C113.572 10.2178 113.636 10.0286 113.764 9.91016C113.891 9.78711 114.051 9.72559 114.242 9.72559C114.424 9.72559 114.582 9.78711 114.714 9.91016C114.846 10.0332 114.912 10.2223 114.912 10.4775C114.912 10.7327 114.846 10.9242 114.714 11.0518C114.582 11.1748 114.424 11.2363 114.242 11.2363C114.051 11.2363 113.891 11.1748 113.764 11.0518C113.636 10.9242 113.572 10.7327 113.572 10.4775ZM118.344 20H117.209V9.36328H118.344V20ZM125.583 17.9561C125.583 18.6533 125.323 19.1911 124.804 19.5693C124.284 19.9476 123.555 20.1367 122.616 20.1367C121.623 20.1367 120.848 19.9795 120.292 19.665V18.6123C120.652 18.7946 121.037 18.9382 121.447 19.043C121.862 19.1478 122.261 19.2002 122.644 19.2002C123.236 19.2002 123.692 19.1068 124.011 18.9199C124.33 18.7285 124.489 18.4391 124.489 18.0518C124.489 17.7601 124.362 17.5117 124.106 17.3066C123.856 17.097 123.364 16.8509 122.63 16.5684C121.933 16.3086 121.436 16.083 121.14 15.8916C120.848 15.6956 120.629 15.4746 120.483 15.2285C120.342 14.9824 120.271 14.6885 120.271 14.3467C120.271 13.736 120.52 13.2552 121.017 12.9043C121.513 12.5488 122.195 12.3711 123.061 12.3711C123.867 12.3711 124.656 12.5352 125.426 12.8633L125.022 13.7861C124.271 13.4762 123.589 13.3213 122.979 13.3213C122.441 13.3213 122.035 13.4056 121.762 13.5742C121.488 13.7428 121.352 13.9753 121.352 14.2715C121.352 14.472 121.402 14.6429 121.502 14.7842C121.607 14.9255 121.773 15.0599 122.001 15.1875C122.229 15.3151 122.666 15.4997 123.313 15.7412C124.202 16.0648 124.801 16.3906 125.111 16.7188C125.426 17.0469 125.583 17.4593 125.583 17.9561ZM133.567 16.418L131.216 19.2002L130.416 18.7148L132.378 16.3154L130.416 13.9229L131.216 13.4512L133.567 16.2334V16.418Z" fill="white"/>
<path d="M19.5 12.5L22 17H17L19.5 12.5ZM17.5 7H21.5V11H17.5V7ZM19.5 23C20.0304 23 20.5391 22.7893 20.9142 22.4142C21.2893 22.0391 21.5 21.5304 21.5 21C21.5 20.4696 21.2893 19.9609 20.9142 19.5858C20.5391 19.2107 20.0304 19 19.5 19C18.9696 19 18.4609 19.2107 18.0858 19.5858C17.7107 19.9609 17.5 20.4696 17.5 21C17.5 21.5304 17.7107 22.0391 18.0858 22.4142C18.4609 22.7893 18.9696 23 19.5 23ZM23.5 8V10H35.5V8H23.5ZM23.5 22H35.5V20H23.5V22ZM23.5 16H35.5V14H23.5V16Z" fill="white"/>
</svg>